<?xml version="1.0" encoding="utf-8"?>
<!-- Generator: Adobe Illustrator 27.6.1, SVG Export Plug-In . SVG Version: 6.00 Build 0)  -->
<svg version="1.1" id="Livello_1" xmlns="http://www.w3.org/2000/svg" xmlns:xlink="http://www.w3.org/1999/xlink" x="0px" y="0px"
	 viewBox="0 0 1447.4 579.7" style="enable-background:new 0 0 1447.4 579.7;" xml:space="preserve">
<style type="text/css">
	.st0{fill:#DFAF5A;}
	.st1{fill:#9C7C40;}
	.st2{fill:#FCC464;}
	.st3{fill:#B1A79B;}
	.st4{fill:#99876D;}
	.st5{fill:#FCDBAF;}
	.st6{fill:#A26965;}
	.st7{fill:#FAC8AB;}
	.st8{fill:#7D5A63;}
	.st9{fill:#F18B6A;}
	.st10{fill:#F1AD4C;}
	.st11{fill:#8EBF22;}
	.st12{fill:#E49D92;}
	.st13{fill:#7D9FAC;}
	.st14{fill:#50666E;}
	.st15{fill:#E4D3E9;stroke:#3E2D37;stroke-width:11;stroke-miterlimit:10;}
	.st16{fill:#DAC2DF;stroke:#756E78;stroke-width:11;stroke-miterlimit:10;}
	.st17{fill:#937985;}
	.st18{fill:#AF8EA4;}
	.st19{fill:#A57683;}
	.st20{fill:#2D2B28;}
	.st21{fill:#4C4846;}
	.st22{fill:#34322F;}
	.st23{fill:#5C5755;}
	.st24{fill:#B294C5;}
	.st25{fill:#7C6889;}
	.st26{opacity:0.57;fill:#49333D;enable-background:new    ;}
	.st27{fill:#9D707C;}
	.st28{fill:#816B75;}
	.st29{fill:none;stroke:#615348;stroke-width:5;stroke-miterlimit:10;}
	.st30{fill:#8B4F3D;}
	.st31{fill:#D97960;}
	.st32{opacity:0.47;}
	.st33{fill:#FFFCE6;}
	.st34{fill:#6C476D;}
	.st35{fill:#9C8990;}
	.st36{fill:#855886;}
	.st37{fill:#A79089;}
	.st38{fill:#A36BA5;}
	.st39{fill:#C2ADA8;}
	.st40{font-family:'SFMonoNerdFontComplete-Bold';}
	.st41{font-size:37.4863px;}
</style>
<g id="Mac">
	<path class="st0" d="M737.1,357.9h117.1c8,0,14.4,6.5,14.4,14.4v163.5c0,8-6.5,14.4-14.4,14.4H737.1c-8,0-14.4-6.5-14.4-14.4V372.3
		C722.7,364.3,729.1,357.9,737.1,357.9z"/>
	<path class="st1" d="M507.8,38.6h575.6c8,0,14.4,6.5,14.4,14.4v398.4c0,8-6.5,14.4-14.4,14.4H507.8c-8,0-14.4-6.5-14.4-14.4V53
		C493.4,45.1,499.9,38.6,507.8,38.6z"/>
	<path class="st2" d="M507.8,26.8h575.6c8,0,14.4,6.5,14.4,14.4v398.4c0,8-6.5,14.4-14.4,14.4H507.8c-8,0-14.4-6.5-14.4-14.4V41.3
		C493.4,33.3,499.9,26.8,507.8,26.8z"/>
	<path class="st3" d="M509.4,37.7h572.5c2.9,0,5.2,2.3,5.2,5.2v343.7c0,2.9-2.3,5.2-5.2,5.2H509.4c-2.9,0-5.2-2.3-5.2-5.2V42.9
		C504.2,40,506.6,37.7,509.4,37.7z"/>
</g>
<g id="NUVOLA">
	<path class="st4" d="M517.2,57.8c-0.9-25.4-21.8-45.6-47.3-45.6c-19.4,0-36.2,11.7-43.5,28.5c-3.8-3.5-8.8-5.6-14.3-5.6
		c-11.7,0-21.1,9.4-21.1,21.1c0,0.6,0,1.2,0.1,1.8c-12.9,4.4-22.2,16.7-22.2,31.1l0,0c0,18.1,14.7,32.9,32.9,32.9h105
		c18.1,0,32.9-14.7,32.9-32.9l0,0C539.6,74.5,530.2,62.2,517.2,57.8L517.2,57.8z"/>
	<path class="st5" d="M515,47.7c-0.9-25.4-21.8-45.6-47.3-45.6c-19.4,0-36.2,11.7-43.5,28.5c-3.8-3.5-8.8-5.6-14.3-5.6
		c-11.7,0-21.1,9.4-21.1,21.1c0,0.6,0,1.2,0.1,1.8c-12.9,4.4-22.2,16.7-22.2,31.1l0,0c0,18.1,14.7,32.9,32.9,32.9h105
		c18.1,0,32.9-14.7,32.9-32.9l0,0C537.5,64.4,528.1,52.1,515,47.7L515,47.7z"/>
</g>
<g id="Livello_3">
	<path class="st6" d="M17.3,170.2h518.6c8,0,14.4,6.5,14.4,14.4v358c0,8-6.5,14.4-14.4,14.4H17.3c-8,0-14.4-6.5-14.4-14.4v-358
		C2.9,176.6,9.3,170.2,17.3,170.2z"/>
	<path class="st7" d="M17.3,157.3h518.6c8,0,14.4,6.5,14.4,14.4v358c0,8-6.5,14.4-14.4,14.4H17.3c-8,0-14.4-6.5-14.4-14.4v-358
		C2.9,163.8,9.3,157.3,17.3,157.3z"/>
	<path class="st8" d="M168.6,176.3h227.1c8,0,14.4,6.5,14.4,14.4v4c0,8-6.5,14.4-14.4,14.4H168.6c-8,0-14.4-6.5-14.4-14.4v-4
		C154.2,182.7,160.7,176.3,168.6,176.3z"/>
	<circle class="st9" cx="34.1" cy="192.7" r="11.9"/>
	<circle class="st10" cx="70.1" cy="192.7" r="11.9"/>
	<circle class="st11" cx="106" cy="192.7" r="11.9"/>
	<path class="st12" d="M74.7,263.5h93c4.5,0,8.2,3.7,8.2,8.2v58c0,4.5-3.7,8.2-8.2,8.2h-93c-4.5,0-8.2-3.7-8.2-8.2v-58
		C66.4,267.2,70.1,263.5,74.7,263.5z"/>
	<path class="st12" d="M230,263.5h244.3c4.5,0,8.2,3.7,8.2,8.2v0c0,4.5-3.7,8.2-8.2,8.2H230c-4.5,0-8.2-3.7-8.2-8.2v0
		C221.8,267.2,225.5,263.5,230,263.5z"/>
	<path class="st12" d="M230,318.1h244.3c4.5,0,8.2,3.7,8.2,8.2v0c0,4.5-3.7,8.2-8.2,8.2H230c-4.5,0-8.2-3.7-8.2-8.2v0
		C221.8,321.8,225.5,318.1,230,318.1z"/>
	<path class="st12" d="M72,372.7h243.2c4.5,0,8.2,3.7,8.2,8.2v0c0,4.5-3.7,8.2-8.2,8.2H72c-4.5,0-8.2-3.7-8.2-8.2v0
		C63.8,376.4,67.5,372.7,72,372.7z"/>
	<path class="st12" d="M381.4,373.4h93c4.5,0,8.2,3.7,8.2,8.2v93c0,4.5-3.7,8.2-8.2,8.2h-93c-4.5,0-8.2-3.7-8.2-8.2v-93
		C373.2,377,376.8,373.4,381.4,373.4z"/>
	<path class="st12" d="M72,419.9h243.2c4.5,0,8.2,3.7,8.2,8.2v0c0,4.5-3.7,8.2-8.2,8.2H72c-4.5,0-8.2-3.7-8.2-8.2v0
		C63.8,423.5,67.5,419.9,72,419.9z"/>
	<path class="st12" d="M72,467h243.2c4.5,0,8.2,3.7,8.2,8.2v0c0,4.5-3.7,8.2-8.2,8.2H72c-4.5,0-8.2-3.7-8.2-8.2v0
		C63.8,470.7,67.5,467,72,467z"/>
	<path class="st8" d="M503.9,180.9L503.9,180.9c9.3,0,16.9,7.6,16.9,16.9l0,0c0,9.3-7.6,16.9-16.9,16.9l0,0
		c-9.3,0-16.9-7.6-16.9-16.9l0,0C487,188.5,494.6,180.9,503.9,180.9z"/>
	<path class="st8" d="M502.7,164.8h2.5c1.6,0,3,1.3,3,3v6.8c0,1.6-1.3,3-3,3h-2.5c-1.6,0-3-1.3-3-3v-6.8
		C499.7,166.1,501.1,164.8,502.7,164.8z"/>
	<path class="st8" d="M501.1,218.1h2.5c1.6,0,3,1.3,3,3v7.5c0,1.6-1.3,3-3,3h-2.5c-1.6,0-3-1.3-3-3v-7.5
		C498.1,219.5,499.4,218.1,501.1,218.1z"/>
	<path class="st8" d="M470,199.1v-2.5c0-1.6,1.3-3,3-3h8.6c1.6,0,3,1.3,3,3v2.5c0,1.6-1.3,3-3,3H473
		C471.4,202.1,470,200.7,470,199.1z"/>
	<path class="st8" d="M525.2,199.1v-2.5c0-1.6,1.3-3,3-3h8.4c1.6,0,3,1.3,3,3v2.5c0,1.6-1.3,3-3,3h-8.4
		C526.5,202.1,525.2,200.7,525.2,199.1z"/>
	<path class="st8" d="M477.7,174.9l1.8-1.8c1.2-1.2,3.1-1.2,4.2,0l5.8,5.8c1.2,1.2,1.2,3.1,0,4.2l-1.8,1.8c-1.2,1.2-3.1,1.2-4.2,0
		l-5.8-5.8C476.6,177.9,476.6,176,477.7,174.9z"/>
	<path class="st8" d="M479.5,221.7l-1.8-1.8c-1.2-1.2-1.2-3.1,0-4.2l5.7-5.7c1.2-1.2,3.1-1.2,4.2,0l1.8,1.8c1.2,1.2,1.2,3.1,0,4.2
		l-5.7,5.7C482.6,222.9,480.7,222.9,479.5,221.7z"/>
	<path class="st8" d="M519.6,185.5l-1.8-1.8c-1.2-1.2-1.2-3.1,0-4.2l5.4-5.4c1.2-1.2,3.1-1.2,4.2,0l1.8,1.8c1.2,1.2,1.2,3.1,0,4.2
		l-5.4,5.4C522.7,186.7,520.8,186.7,519.6,185.5z"/>
</g>
<g id="windows">
	<path class="st13" d="M1135.6,76.2h50.6c6.7,0,12.1,5.4,12.1,12.1V139c0,6.7-5.4,12.1-12.1,12.1h-50.6c-6.7,0-12.1-5.4-12.1-12.1
		V88.4C1123.5,81.7,1128.9,76.2,1135.6,76.2z"/>
	<path class="st13" d="M1215.5,76.2h50.6c6.7,0,12.1,5.4,12.1,12.1V139c0,6.7-5.4,12.1-12.1,12.1h-50.6c-6.7,0-12.1-5.4-12.1-12.1
		V88.4C1203.4,81.7,1208.8,76.2,1215.5,76.2z"/>
	<path class="st14" d="M1135.6,156.1h50.6c6.7,0,12.1,5.4,12.1,12.1v50.6c0,6.7-5.4,12.1-12.1,12.1h-50.6c-6.7,0-12.1-5.4-12.1-12.1
		v-50.6C1123.5,161.5,1128.9,156.1,1135.6,156.1z"/>
	<path class="st14" d="M1215.5,156.1h50.6c6.7,0,12.1,5.4,12.1,12.1v50.6c0,6.7-5.4,12.1-12.1,12.1h-50.6c-6.7,0-12.1-5.4-12.1-12.1
		v-50.6C1203.4,161.5,1208.8,156.1,1215.5,156.1z"/>
	<path class="st13" d="M1135.6,156.1h50.6c6.7,0,12.1,5.4,12.1,12.1v42.5c0,6.7-5.4,12.1-12.1,12.1h-50.6c-6.7,0-12.1-5.4-12.1-12.1
		v-42.5C1123.5,161.5,1128.9,156.1,1135.6,156.1z"/>
	<path class="st13" d="M1215.5,156.1h50.6c6.7,0,12.1,5.4,12.1,12.1v42.5c0,6.7-5.4,12.1-12.1,12.1h-50.6c-6.7,0-12.1-5.4-12.1-12.1
		v-42.5C1203.4,161.5,1208.8,156.1,1215.5,156.1z"/>
</g>
<g id="Livello_19">
	<path class="st15" d="M1081.1,540.6V300c0-16.7,13.6-30.3,30.3-30.3h296.8c16.7,0,30.3,13.6,30.3,30.3v240.6
		c0,16.7-13.6,30.3-30.3,30.3h-296.8C1094.6,570.9,1081.1,557.4,1081.1,540.6z"/>
	<path class="st16" d="M1081.1,529.1V288.5c0-16.7,13.6-30.3,30.3-30.3h296.8c16.7,0,30.3,13.6,30.3,30.3v240.6
		c0,16.7-13.6,30.3-30.3,30.3h-296.8C1094.6,559.4,1081.1,545.9,1081.1,529.1z"/>
	<path class="st17" d="M1297.8,404.5L1297.8,404.5c6,0,10.9,4.9,10.9,10.9V519c0,6-4.9,10.9-10.9,10.9h0c-6,0-10.9-4.9-10.9-10.9
		V415.3C1287,409.3,1291.9,404.5,1297.8,404.5z"/>
	<path class="st18" d="M1338.1,372.4L1338.1,372.4c6,0,10.9,4.9,10.9,10.9V519c0,6-4.9,10.9-10.9,10.9h0c-6,0-10.9-4.9-10.9-10.9
		V383.3C1327.3,377.3,1332.1,372.4,1338.1,372.4z"/>
	<path class="st19" d="M1380.6,440.6L1380.6,440.6c6,0,10.9,4.9,10.9,10.9V519c0,6-4.9,10.9-10.9,10.9h0c-6,0-10.9-4.9-10.9-10.9
		v-67.6C1369.7,445.4,1374.6,440.6,1380.6,440.6z"/>
	<g id="Livello_5">
		<path class="st20" d="M573.3,103.9h212.7c8,0,14.4,6.5,14.4,14.4v236.9c0,8-6.5,14.4-14.4,14.4H573.3c-8,0-14.4-6.5-14.4-14.4
			V118.3C558.8,110.4,565.3,103.9,573.3,103.9z"/>
		<path class="st21" d="M573.3,92h212.7c8,0,14.4,6.5,14.4,14.4v236.9c0,8-6.5,14.4-14.4,14.4H573.3c-8,0-14.4-6.5-14.4-14.4V106.4
			C558.8,98.5,565.3,92,573.3,92z"/>
		<path class="st22" d="M854.9,206.6h174c8,0,14.4,6.5,14.4,14.4v134.2c0,8-6.5,14.4-14.4,14.4h-174c-8,0-14.4-6.5-14.4-14.4V221
			C840.5,213,847,206.6,854.9,206.6z"/>
		<path class="st23" d="M854.9,198.4h174c8,0,14.4,6.5,14.4,14.4v130.6c0,8-6.5,14.4-14.4,14.4h-174c-8,0-14.4-6.5-14.4-14.4V212.8
			C840.5,204.9,847,198.4,854.9,198.4z"/>
		<path class="st24" d="M861.4,226.4h14.3c2.4,0,4.3,1.9,4.3,4.3v0c0,2.4-1.9,4.3-4.3,4.3h-14.3c-2.4,0-4.3-1.9-4.3-4.3v0
			C857.1,228.3,859,226.4,861.4,226.4z"/>
		<path class="st24" d="M904.9,226.7h117.5c2.4,0,4.3,1.9,4.3,4.3v0c0,2.4-1.9,4.3-4.3,4.3H904.9c-2.4,0-4.3-1.9-4.3-4.3v0
			C900.6,228.6,902.6,226.7,904.9,226.7z"/>
		<path class="st24" d="M904.9,258.2h117.5c2.4,0,4.3,1.9,4.3,4.3v0c0,2.4-1.9,4.3-4.3,4.3H904.9c-2.4,0-4.3-1.9-4.3-4.3v0
			C900.6,260.1,902.6,258.2,904.9,258.2z"/>
		<path class="st24" d="M904.9,289.8h117.5c2.4,0,4.3,1.9,4.3,4.3v0c0,2.4-1.9,4.3-4.3,4.3H904.9c-2.4,0-4.3-1.9-4.3-4.3v0
			C900.6,291.7,902.6,289.8,904.9,289.8z"/>
		<path class="st25" d="M607.5,105.1h136.7c3.7,0,6.7,3,6.7,6.7l0,0c0,3.7-3,6.7-6.7,6.7H607.5c-3.7,0-6.7-3-6.7-6.7l0,0
			C600.9,108.1,603.8,105.1,607.5,105.1z"/>
		<path class="st24" d="M904.9,321.3h117.5c2.4,0,4.3,1.9,4.3,4.3l0,0c0,2.4-1.9,4.3-4.3,4.3H904.9c-2.4,0-4.3-1.9-4.3-4.3l0,0
			C900.6,323.2,902.6,321.3,904.9,321.3z"/>
		<path class="st26" d="M1127.5,434.6h107.8c2.4,0,4.3,1.9,4.3,4.3l0,0c0,2.4-1.9,4.3-4.3,4.3h-107.8c-2.4,0-4.3-1.9-4.3-4.3l0,0
			C1123.2,436.5,1125.1,434.6,1127.5,434.6z"/>
		<path class="st26" d="M1127.5,461.9h107.8c2.4,0,4.3,1.9,4.3,4.3l0,0c0,2.4-1.9,4.3-4.3,4.3h-107.8c-2.4,0-4.3-1.9-4.3-4.3l0,0
			C1123.2,463.8,1125.1,461.9,1127.5,461.9z"/>
		<path class="st26" d="M1127.5,489.9h107.8c2.4,0,4.3,1.9,4.3,4.3l0,0c0,2.4-1.9,4.3-4.3,4.3h-107.8c-2.4,0-4.3-1.9-4.3-4.3l0,0
			C1123.2,491.8,1125.1,489.9,1127.5,489.9z"/>
		<path class="st26" d="M1127.5,517.9h107.8c2.4,0,4.3,1.9,4.3,4.3l0,0c0,2.4-1.9,4.3-4.3,4.3h-107.8c-2.4,0-4.3-1.9-4.3-4.3l0,0
			C1123.2,519.8,1125.1,517.9,1127.5,517.9z"/>
		<path class="st26" d="M1284.2,290.4H1392c2.4,0,4.3,1.9,4.3,4.3l0,0c0,2.4-1.9,4.3-4.3,4.3h-107.8c-2.4,0-4.3-1.9-4.3-4.3l0,0
			C1279.9,292.4,1281.9,290.4,1284.2,290.4z"/>
		<path class="st26" d="M1284.2,318.4H1392c2.4,0,4.3,1.9,4.3,4.3v0c0,2.4-1.9,4.3-4.3,4.3h-107.8c-2.4,0-4.3-1.9-4.3-4.3v0
			C1279.9,320.3,1281.9,318.4,1284.2,318.4z"/>
		<path class="st26" d="M1284.2,346.4H1392c2.4,0,4.3,1.9,4.3,4.3v0c0,2.4-1.9,4.3-4.3,4.3h-107.8c-2.4,0-4.3-1.9-4.3-4.3v0
			C1279.9,348.3,1281.9,346.4,1284.2,346.4z"/>
	</g>
	<circle class="st18" cx="1181.4" cy="346.4" r="48.7"/>
	<path class="st27" d="M1178.8,297.8c-7.7,0.4-14.9,2.6-21.2,6.1l23.8,42.5l28.2-39.7C1200.9,300.6,1190.2,297.2,1178.8,297.8
		L1178.8,297.8z"/>
	<path class="st28" d="M1157.6,304c-15.6,8.8-25.8,25.9-24.8,45c0.7,14.1,7.4,26.4,17.5,34.8l31.1-37.4L1157.6,304L1157.6,304z"/>
</g>
<g id="tazza">
	<path class="st29" d="M508.5,493.4h12c5.6,0,10.1,4.5,10.1,10.1v29.1c0,5.6-4.5,10.1-10.1,10.1h-12c-5.6,0-10.1-4.5-10.1-10.1
		v-29.1C498.4,498,502.9,493.4,508.5,493.4z"/>
	<path class="st30" d="M534.3,469.9h72.1c7.1,0,12.9,5.8,12.9,12.9v84.1c0,7.1-5.8,12.9-12.9,12.9h-72.1c-7.1,0-12.9-5.8-12.9-12.9
		v-84.1C521.5,475.6,527.2,469.9,534.3,469.9z"/>
	<path class="st31" d="M534.3,460.1h72.1c7.1,0,12.9,5.8,12.9,12.9v80.6c0,7.1-5.8,12.9-12.9,12.9h-72.1c-7.1,0-12.9-5.8-12.9-12.9
		V473C521.5,465.9,527.2,460.1,534.3,460.1z"/>
	<g class="st32">
		<path class="st33" d="M575,368.5c-3.1,9.6-12.5,30.6-4.1,38.2c1.1,1,2.8,1.8,4.8,3.1c3.1,1.8,6.2,5.4,7.4,9
			c0.5,1.3,0.8,2.9,0.7,4.3c-0.9,12.9-14.1,23.4-21.6,32.8c1.8-8.3,6.7-15.6,10.4-23c1.5-3,3.4-6.8,3.4-9.9
			c-0.5-5.9-5.9-7.3-10-11.2C554.7,399.7,567.2,379.3,575,368.5L575,368.5L575,368.5z"/>
	</g>
	<g class="st32">
		<path class="st33" d="M575,368.5c-2.8,7.9-6.3,15.6-9.1,23.2c-3,8-3.5,12.4,5.1,17.1c20,12.2,1.5,35-8.7,47.3
			c1.9-10.1,7.3-19.2,9.5-29c1.2-5.2-0.6-9.1-5.1-12c-3.7-2.2-8.2-6.7-8.9-11.5c-0.9-5.4,1.3-9.4,3.4-13.8
			C565.3,382.1,570,375.3,575,368.5L575,368.5L575,368.5z"/>
	</g>
</g>
<g id="Livello_2_00000125591849901423355120000016568697800743574201_">
	<path class="st34" d="M612.7,326l-21.9-27.9l19.4-15.2c6.1-4.8,4.8-15.1-2.6-19.7L520.1,208c-9.3-5.8-19.4,2.1-15.9,12.5l32.6,98.2
		c2.7,8.2,12.4,12,18.5,7.2l15.5-12.1l21.9,27.9c3.6,4.5,10.2,5.4,14.7,1.8l3.6-2.8C615.4,337.2,616.2,330.6,612.7,326L612.7,326z"
		/>
	<path class="st35" d="M612.3,321l-24.8-31.7l20.3-15.9c6.2-4.8,4.9-15.2-2.5-19.8l-87.9-55c-9.3-5.8-19.5,2.2-16.1,12.6l32.3,98.5
		c2.7,8.2,12.4,12,18.6,7.2l17.5-13.7l24.8,31.7c3.2,4,9,4.7,13,1.6l3.2-2.5C614.7,330.9,615.4,325.1,612.3,321L612.3,321z"/>
	<path class="st36" d="M673.6,340.4l31-24.2c3.4-2.7,2.7-8.5-1.5-11.1L653.8,274c-5.2-3.3-10.9,1.2-9,7l18.4,55.3
		C664.7,341,670.2,343.1,673.6,340.4L673.6,340.4z"/>
	<path class="st36" d="M676.4,314.3L676.4,314.3c3.1-2.4,7.6-1.9,10.1,1.2l18.7,23.8c2.4,3.1,1.9,7.6-1.2,10.1l0,0
		c-3.1,2.4-7.6,1.9-10.1-1.2l-18.7-23.8C672.8,321.3,673.3,316.8,676.4,314.3z"/>
	<path class="st37" d="M671.9,335.3l31.3-24.5c3.5-2.7,2.7-8.5-1.4-11.1l-49.5-30.9c-5.2-3.3-11,1.2-9.1,7.1l18.2,55.4
		C663,336,668.4,338.1,671.9,335.3z"/>
	<path class="st37" d="M676.4,310.5L676.4,310.5c2.8-2.2,6.8-1.7,8.9,1.1l19.7,25.1c2.2,2.8,1.7,6.8-1.1,8.9l0,0
		c-2.8,2.2-6.8,1.7-8.9-1.1l-19.7-25.1C673.2,316.7,673.6,312.7,676.4,310.5z"/>
	<path class="st38" d="M759.5,310l-7.7-9.8l6.6-5.2c2-1.6,1.6-4.9-0.8-6.5L729,270.6c-3-1.9-6.4,0.7-5.2,4.1l10.5,32.1
		c0.9,2.7,4,3.9,6.1,2.3l5.7-4.5l7.7,9.8c1.2,1.6,3.6,1.9,5.2,0.6C760.5,313.9,760.8,311.6,759.5,310L759.5,310z"/>
	<path class="st39" d="M759,307.2l-7.7-9.8l6.6-5.2c2-1.6,1.6-4.9-0.8-6.5l-28.6-17.9c-3-1.9-6.4,0.7-5.2,4.1l10.5,32.1
		c0.9,2.7,4,3.9,6.1,2.3l5.7-4.5l7.7,9.8c1.2,1.6,3.6,1.9,5.2,0.6C759.9,311.2,760.2,308.8,759,307.2L759,307.2z"/>
</g>
<g id="terminale">
	<text transform="matrix(1 0 0 1 615.6903 186.0132)" class="st24 st40 st41">~Echo  </text>
	<text transform="matrix(1 0 0 1 615.6903 230.9976)" class="st24 st40 st41">$Ciao</text>
</g>
</svg>
