<?xml version="1.0" encoding="utf-8"?>
<!-- Generator: Adobe Illustrator 27.6.1, SVG Export Plug-In . SVG Version: 6.00 Build 0)  -->
<svg version="1.1" id="Livello_1" xmlns="http://www.w3.org/2000/svg" xmlns:xlink="http://www.w3.org/1999/xlink" x="0px" y="0px"
	 viewBox="0 0 1676.5 1244.3" style="enable-background:new 0 0 1676.5 1244.3;" xml:space="preserve">
<style type="text/css">
	.st0{fill:#FCDBAF;}
	.st1{opacity:0.32;}
	.st2{fill:#CBBBA0;}
	.st3{opacity:0.36;}
	.st4{fill:#575958;}
	.st5{fill:#929292;}
	.st6{opacity:0.7;fill:#26A1DC;enable-background:new    ;}
	.st7{opacity:0.7;fill:#EE712A;enable-background:new    ;}
	.st8{opacity:0.7;fill:#F6ED7F;enable-background:new    ;}
	.st9{opacity:0.7;fill:#FFFFFF;enable-background:new    ;}
	.st10{fill:#DFAF5A;}
	.st11{fill:#AF8B48;}
	.st12{fill:#FCC464;}
	.st13{fill:#B1A79B;}
	.st14{fill:#C8B08E;}
	.st15{fill:#A26965;}
	.st16{fill:#FAC8AB;}
	.st17{fill:#7D5A63;}
	.st18{fill:#F18B6A;}
	.st19{fill:#F1AD4C;}
	.st20{fill:#8EBF22;}
	.st21{fill:#E49D92;}
	.st22{fill:#4C4846;}
	.st23{fill:#5C5755;}
	.st24{fill:#B294C5;}
	.st25{fill:#7C6889;}
	.st26{fill:#7D9FAC;}
	.st27{fill:#50666E;}
	.st28{fill:#4D5063;stroke:#AEAEAE;stroke-width:11;stroke-miterlimit:10;}
	.st29{fill:#9C8990;}
	.st30{fill:#686A77;stroke:#AEAEAE;stroke-width:11;stroke-miterlimit:10;}
	.st31{display:none;opacity:0.19;fill:#5B81AC;enable-background:new    ;}
	.st32{fill:none;stroke:#575756;stroke-width:15;stroke-miterlimit:10;}
	.st33{opacity:0.51;fill:#FFFFFF;enable-background:new    ;}
	.st34{fill:#3F3F3E;}
	.st35{fill:none;stroke:#A48A7B;stroke-width:5;stroke-miterlimit:10;}
	.st36{fill:#947648;}
	.st37{fill:#EAB76F;}
	.st38{fill:#6C476D;}
	.st39{fill:#A79089;}
	.st40{opacity:0.62;fill:#A79089;enable-background:new    ;}
	.st41{fill:#423C39;}
	.st42{font-family:'SFMonoNerdFontComplete-Bold';}
	.st43{font-size:26.5934px;}
</style>
<g id="Livello_1_00000158739788344227980790000012935276554521301664_">
	<path class="st0" d="M103.2,381h1447.2c13.5,0,24.5,11,24.5,24.5V1295H78.7V405.5C78.7,392,89.7,381,103.2,381L103.2,381z"/>
	<g class="st1">
		<path class="st2" d="M269.7,322c-2.3,4-9.7,13.5-6.4,17.6c1.7,1.9,6.5,2.3,9.3,3.8c9,4.6,4,13.4-1.4,18.6
			c-1.8,1.8-3.7,3.4-5.8,4.8c1.8-4.5,4.7-8.6,6.5-12.9c0.5-1.6,1.3-3.1,0.3-4.5c-1.3-2.1-5.9-2.9-8.5-4.2
			C252,339.4,263,326.9,269.7,322L269.7,322L269.7,322z"/>
	</g>
	<g class="st3">
		<path class="st2" d="M266.7,323c-2.3,4-9.7,13.4-6.4,17.6c1.7,1.9,6.5,2.3,9.3,3.8c9,4.6,4,13.4-1.4,18.6
			c-1.8,1.8-3.7,3.4-5.8,4.8c1.8-4.5,4.7-8.6,6.5-12.9c0.5-1.6,1.3-3.1,0.3-4.6c-1.3-2.1-5.9-2.9-8.5-4.2
			C249.1,340.4,260.1,327.9,266.7,323L266.7,323L266.7,323z"/>
	</g>
</g>
<g id="google_home">
	<ellipse class="st4" cx="938.6" cy="407" rx="33.1" ry="24.7"/>
	<path class="st5" d="M971.7,407c0,13.6-14.8,19.5-33.1,19.5s-33.1-5.8-33.1-19.5s14.8-24.7,33.1-24.7S971.7,393.3,971.7,407z"/>
	<circle class="st6" cx="922.6" cy="403.5" r="3.5"/>
	<circle class="st7" cx="933.3" cy="400.9" r="3.5"/>
	<circle class="st8" cx="944.5" cy="400.9" r="3.5"/>
	<circle class="st9" cx="954.8" cy="402.4" r="3.5"/>
</g>
<g id="Mac">
	<path class="st10" d="M789.3,294.4h75c5.1,0,9.2,4.5,9.2,10v113.1c0,5.5-4.1,10-9.2,10h-75c-5.1,0-9.2-4.5-9.2-10V304.4
		C780.1,298.9,784.2,294.4,789.3,294.4z"/>
	<path class="st11" d="M642.5,90h368.6c5.1,0,9.2,4.1,9.2,9.2v255.1c0,5.1-4.1,9.2-9.2,9.2H642.5c-5.1,0-9.2-4.1-9.2-9.2V99.3
		C633.3,94.2,637.4,90,642.5,90z"/>
	<path class="st12" d="M642.5,82.5h368.6c5.1,0,9.2,4.1,9.2,9.2v255.1c0,5.1-4.1,9.2-9.2,9.2H642.5c-5.1,0-9.2-4.1-9.2-9.2V91.7
		C633.3,86.6,637.4,82.5,642.5,82.5z"/>
	<path class="st13" d="M640.8,89.4h372c0.3,0,0.6,0.3,0.6,0.6v225.5c0,0.3-0.3,0.6-0.6,0.6h-372c-0.3,0-0.6-0.3-0.6-0.6V90
		C640.2,89.7,640.5,89.4,640.8,89.4z"/>
</g>
<g id="NUVOLA">
	<path class="st14" d="M648.5,102.4c-0.6-16.2-13.9-29.2-30.3-29.2c-12.5,0-23.2,7.5-27.8,18.2c-2.4-2.2-5.6-3.6-9.2-3.6
		c-7.5,0-13.5,6-13.5,13.5c0,0.4,0,0.8,0.1,1.1c-8.3,2.8-14.2,10.7-14.2,19.9l0,0c0,11.6,9.4,21,21,21h67.2c11.6,0,21-9.4,21-21l0,0
		C662.8,113,656.8,105.1,648.5,102.4L648.5,102.4z"/>
	<path class="st0" d="M647.1,95.9c-0.6-16.2-13.9-29.2-30.3-29.2c-12.5,0-23.2,7.5-27.8,18.2c-2.4-2.2-5.6-3.6-9.2-3.6
		c-7.5,0-13.5,6-13.5,13.5c0,0.4,0,0.8,0.1,1.1c-8.3,2.8-14.2,10.7-14.2,19.9l0,0c0,11.6,9.4,21,21,21h67.2c11.6,0,21-9.4,21-21l0,0
		C661.5,106.5,655.5,98.7,647.1,95.9L647.1,95.9z"/>
</g>
<g id="Livello_3">
	<path class="st15" d="M328.4,174.3h332c5.1,0,9.2,4.1,9.2,9.2v229.2c0,5.1-4.1,9.2-9.2,9.2h-332c-5.1,0-9.2-4.1-9.2-9.2V183.5
		C319.2,178.4,323.3,174.3,328.4,174.3z"/>
	<path class="st16" d="M328.4,166h332c5.1,0,9.2,4.1,9.2,9.2v229.2c0,5.1-4.1,9.2-9.2,9.2h-332c-5.1,0-9.2-4.1-9.2-9.2V175.3
		C319.2,170.2,323.3,166,328.4,166z"/>
	<path class="st17" d="M425.3,178.2h145.4c5.1,0,9.2,4.1,9.2,9.2v2.6c0,5.1-4.1,9.2-9.2,9.2H425.3c-5.1,0-9.2-4.1-9.2-9.2v-2.6
		C416.1,182.3,420.2,178.2,425.3,178.2z"/>
	<circle class="st18" cx="339.2" cy="188.7" r="7.6"/>
	<circle class="st19" cx="362.2" cy="188.7" r="7.6"/>
	<circle class="st20" cx="385.2" cy="188.7" r="7.6"/>
	<path class="st21" d="M365.2,234h59.5c2.9,0,5.3,2.4,5.3,5.3v37.1c0,2.9-2.4,5.3-5.3,5.3h-59.5c-2.9,0-5.3-2.4-5.3-5.3v-37.1
		C359.9,236.4,362.3,234,365.2,234z"/>
	<path class="st21" d="M464.6,234h156.4c2.9,0,5.3,2.4,5.3,5.3v0c0,2.9-2.4,5.3-5.3,5.3H464.6c-2.9,0-5.3-2.4-5.3-5.3v0
		C459.4,236.4,461.7,234,464.6,234z"/>
	<path class="st21" d="M464.6,269h156.4c2.9,0,5.3,2.4,5.3,5.3v0c0,2.9-2.4,5.3-5.3,5.3H464.6c-2.9,0-5.3-2.4-5.3-5.3v0
		C459.4,271.3,461.7,269,464.6,269z"/>
	<path class="st21" d="M363.5,304h155.7c2.9,0,5.3,2.4,5.3,5.3v0c0,2.9-2.4,5.3-5.3,5.3H363.5c-2.9,0-5.3-2.4-5.3-5.3v0
		C358.2,306.3,360.6,304,363.5,304z"/>
	<path class="st21" d="M561.5,304.4h59.5c2.9,0,5.3,2.4,5.3,5.3v59.5c0,2.9-2.4,5.3-5.3,5.3h-59.5c-2.9,0-5.3-2.4-5.3-5.3v-59.5
		C556.3,306.7,558.6,304.4,561.5,304.4z"/>
	<path class="st21" d="M363.5,334.1h155.7c2.9,0,5.3,2.4,5.3,5.3v0c0,2.9-2.4,5.3-5.3,5.3H363.5c-2.9,0-5.3-2.4-5.3-5.3v0
		C358.2,336.5,360.6,334.1,363.5,334.1z"/>
	<path class="st21" d="M363.5,364.3h155.7c2.9,0,5.3,2.4,5.3,5.3v0c0,2.9-2.4,5.3-5.3,5.3H363.5c-2.9,0-5.3-2.4-5.3-5.3v0
		C358.2,366.7,360.6,364.3,363.5,364.3z"/>
	<path class="st17" d="M640,181.2L640,181.2c6,0,10.8,4.8,10.8,10.8l0,0c0,6-4.8,10.8-10.8,10.8l0,0c-6,0-10.8-4.8-10.8-10.8l0,0
		C629.2,186,634,181.2,640,181.2z"/>
	<path class="st17" d="M639.2,170.8h1.6c1.1,0,1.9,0.9,1.9,1.9v4.3c0,1.1-0.9,1.9-1.9,1.9h-1.6c-1.1,0-1.9-0.9-1.9-1.9v-4.3
		C637.3,171.7,638.2,170.8,639.2,170.8z"/>
	<path class="st17" d="M638.2,205h1.6c1.1,0,1.9,0.9,1.9,1.9v4.8c0,1.1-0.9,1.9-1.9,1.9h-1.6c-1.1,0-1.9-0.9-1.9-1.9v-4.8
		C636.2,205.8,637.1,205,638.2,205z"/>
	<path class="st17" d="M618.3,192.8v-1.6c0-1.1,0.9-1.9,1.9-1.9h5.5c1.1,0,1.9,0.9,1.9,1.9v1.6c0,1.1-0.9,1.9-1.9,1.9h-5.5
		C619.1,194.7,618.3,193.8,618.3,192.8z"/>
	<path class="st17" d="M653.6,192.8v-1.6c0-1.1,0.9-1.9,1.9-1.9h5.4c1.1,0,1.9,0.9,1.9,1.9v1.6c0,1.1-0.9,1.9-1.9,1.9h-5.4
		C654.5,194.7,653.6,193.8,653.6,192.8z"/>
	<path class="st17" d="M623.2,177.3l1.1-1.1c0.7-0.7,2-0.7,2.7,0l3.7,3.7c0.7,0.7,0.7,2,0,2.7l-1.1,1.1c-0.7,0.7-2,0.7-2.7,0
		l-3.7-3.7C622.5,179.2,622.5,178,623.2,177.3z"/>
	<path class="st17" d="M624.4,207.3l-1.1-1.1c-0.7-0.7-0.7-2,0-2.7l3.7-3.7c0.7-0.7,2-0.7,2.7,0l1.1,1.1c0.7,0.7,0.7,2,0,2.7
		l-3.7,3.7C626.3,208,625.1,208,624.4,207.3z"/>
	<path class="st17" d="M650,184.1l-1.1-1.1c-0.7-0.7-0.7-2,0-2.7l3.5-3.5c0.7-0.7,2-0.7,2.7,0l1.1,1.1c0.7,0.7,0.7,2,0,2.7l-3.5,3.5
		C652,184.8,650.8,184.8,650,184.1z"/>
</g>
<g id="Livello_5">
	<path class="st22" d="M684.6,124.2h136.2c5.1,0,9.2,4.1,9.2,9.2v151.6c0,5.1-4.1,9.2-9.2,9.2H684.6c-5.1,0-9.2-4.1-9.2-9.2V133.5
		C675.4,128.4,679.5,124.2,684.6,124.2z"/>
	<path class="st23" d="M855.8,202.8H992c5.1,0,9.2,4.1,9.2,9.2V298c0,5.1-4.1,9.2-9.2,9.2H855.8c-5.1,0-9.2-4.1-9.2-9.2V212
		C846.6,206.9,850.7,202.8,855.8,202.8z"/>
	<path class="st24" d="M860.1,215.2h12c1.5,0,2.8,1.2,2.8,2.7v0c0,1.5-1.2,2.7-2.8,2.7h-12c-1.5,0-2.8-1.2-2.8-2.7v0
		C857.3,216.4,858.6,215.2,860.1,215.2z"/>
	<path class="st24" d="M893.2,215.4h90.6c1.5,0,2.8,1.2,2.8,2.7v0c0,1.5-1.2,2.7-2.8,2.7h-90.6c-1.5,0-2.8-1.2-2.8-2.7v0
		C890.5,216.6,891.7,215.4,893.2,215.4z"/>
	<path class="st24" d="M893.2,235.6h90.6c1.5,0,2.8,1.2,2.8,2.7v0c0,1.5-1.2,2.7-2.8,2.7h-90.6c-1.5,0-2.8-1.2-2.8-2.7v0
		C890.5,236.8,891.7,235.6,893.2,235.6z"/>
	<path class="st24" d="M893.2,255.8h90.6c1.5,0,2.8,1.2,2.8,2.7l0,0c0,1.5-1.2,2.7-2.8,2.7h-90.6c-1.5,0-2.8-1.2-2.8-2.7l0,0
		C890.5,257,891.7,255.8,893.2,255.8z"/>
	<path class="st24" d="M831,229.2L831,229.2c1.5,0,2.7,1.2,2.7,2.7v0c0,1.5-1.2,2.7-2.7,2.7l0,0c-1.5,0-2.7-1.2-2.7-2.7v0
		C828.2,230.4,829.5,229.2,831,229.2z"/>
	<path class="st25" d="M706.6,132.6h87.5c2.4,0,4.3,1.9,4.3,4.3l0,0c0,2.4-1.9,4.3-4.3,4.3h-87.5c-2.4,0-4.3-1.9-4.3-4.3l0,0
		C702.3,134.5,704.2,132.6,706.6,132.6z"/>
</g>
<g id="windows">
	<path class="st26" d="M1042,82.5h55.7c4.3,0,7.8,3.5,7.8,7.8V146c0,4.3-3.5,7.8-7.8,7.8H1042c-4.3,0-7.8-3.5-7.8-7.8V90.3
		C1034.2,86,1037.7,82.5,1042,82.5z"/>
	<path class="st26" d="M1117.9,82.5h55.7c4.3,0,7.8,3.5,7.8,7.8V146c0,4.3-3.5,7.8-7.8,7.8h-55.7c-4.3,0-7.8-3.5-7.8-7.8V90.3
		C1110.2,86,1113.6,82.5,1117.9,82.5z"/>
	<path class="st27" d="M1042,158.4h55.7c4.3,0,7.8,3.5,7.8,7.8v55.7c0,4.3-3.5,7.8-7.8,7.8H1042c-4.3,0-7.8-3.5-7.8-7.8v-55.7
		C1034.2,161.9,1037.7,158.4,1042,158.4z"/>
	<path class="st27" d="M1117.9,158.4h55.7c4.3,0,7.8,3.5,7.8,7.8v55.7c0,4.3-3.5,7.8-7.8,7.8h-55.7c-4.3,0-7.8-3.5-7.8-7.8v-55.7
		C1110.2,161.9,1113.6,158.4,1117.9,158.4z"/>
	<path class="st26" d="M1042,158.4h55.7c4.3,0,7.8,3.5,7.8,7.8v47.9c0,4.3-3.5,7.8-7.8,7.8H1042c-4.3,0-7.8-3.5-7.8-7.8v-47.9
		C1034.2,161.9,1037.7,158.4,1042,158.4z"/>
	<path class="st26" d="M1117.9,158.4h55.7c4.3,0,7.8,3.5,7.8,7.8v47.9c0,4.3-3.5,7.8-7.8,7.8h-55.7c-4.3,0-7.8-3.5-7.8-7.8v-47.9
		C1110.2,161.9,1113.6,158.4,1117.9,158.4z"/>
</g>
<g id="Ipad">
	<path class="st28" d="M1010,409.7V269c0-9.8,7.9-17.7,17.7-17.7h173.6c9.8,0,17.7,7.9,17.7,17.7v140.7c0,9.8-7.9,17.7-17.7,17.7
		h-173.6C1018,427.5,1010,419.5,1010,409.7z"/>
	<path class="st12" d="M1127.5,324.5v-7.4c0-3.3,2.7-6,6-6h7.4c3.3,0,6,2.7,6,6v7.4c0,3.3-2.7,6-6,6h-7.4
		C1130.2,330.4,1127.5,327.8,1127.5,324.5z"/>
	<path class="st29" d="M1127.5,286.7v-7.4c0-3.3,2.7-6,6-6h7.4c3.3,0,6,2.7,6,6v7.4c0,3.3-2.7,6-6,6h-7.4
		C1130.2,292.6,1127.5,289.9,1127.5,286.7z"/>
	<path class="st0" d="M1167.1,324.5v-7.4c0-3.3,2.7-6,6-6h7.4c3.3,0,6,2.7,6,6v7.4c0,3.3-2.7,6-6,6h-7.4
		C1169.8,330.4,1167.1,327.7,1167.1,324.5z"/>
	<path class="st12" d="M1167.1,286.7v-7.4c0-3.3,2.7-6,6-6h7.4c3.3,0,6,2.7,6,6v7.4c0,3.3-2.7,6-6,6h-7.4
		C1169.8,292.6,1167.1,289.9,1167.1,286.7z"/>
	<path class="st29" d="M1179.1,403.2v-7.4c0-3.3,2.7-6,6-6h7.4c3.3,0,6,2.7,6,6v7.4c0,3.3-2.7,6-6,6h-7.4
		C1181.8,409.1,1179.1,406.5,1179.1,403.2z"/>
	<path class="st0" d="M1080.4,403.2v-7.4c0-3.3,2.7-6,6-6h7.4c3.3,0,6,2.7,6,6v7.4c0,3.3-2.7,6-6,6h-7.4
		C1083.1,409.1,1080.4,406.5,1080.4,403.2z"/>
	<path class="st29" d="M1130.2,403.2v-7.4c0-3.3,2.7-6,6-6h7.4c3.3,0,6,2.7,6,6v7.4c0,3.3-2.7,6-6,6h-7.4
		C1132.9,409.1,1130.2,406.5,1130.2,403.2z"/>
	<path class="st12" d="M1105.4,403.2v-7.4c0-3.3,2.7-6,6-6h7.4c3.3,0,6,2.7,6,6v7.4c0,3.3-2.7,6-6,6h-7.4
		C1108.1,409.1,1105.4,406.5,1105.4,403.2z"/>
	<path class="st0" d="M1154.6,403.2v-7.4c0-3.3,2.7-6,6-6h7.4c3.3,0,6,2.7,6,6v7.4c0,3.3-2.7,6-6,6h-7.4
		C1157.3,409.1,1154.6,406.5,1154.6,403.2z"/>
	<path class="st16" d="M1042.7,324.5v-46.9c0-3.3,2.7-6,6-6h46.9c3.3,0,6,2.7,6,6v46.9c0,3.3-2.7,6-6,6h-46.9
		C1045.3,330.4,1042.7,327.7,1042.7,324.5z"/>
	<path class="st29" d="M1054.5,403.2v-7.4c0-3.3,2.7-6,6-6h7.4c3.3,0,6,2.7,6,6v7.4c0,3.3-2.7,6-6,6h-7.4
		C1057.1,409.1,1054.5,406.5,1054.5,403.2z"/>
	<path class="st12" d="M1030.6,403.2v-7.4c0-3.3,2.7-6,6-6h7.4c3.3,0,6,2.7,6,6v7.4c0,3.3-2.7,6-6,6h-7.4
		C1033.3,409.1,1030.6,406.5,1030.6,403.2z"/>
</g>
<g id="lente">
	<g id="zoom">
		<path class="st30" d="M1178,255.5v-12c0-4.6,3.7-8.3,8.3-8.3h27.6c13.2,0,23.9,10.7,23.9,23.9v27.1c0,4-3.2,7.2-7.2,7.2h-14.7
			C1195,293.4,1178,276.4,1178,255.5L1178,255.5z"/>
	</g>
	<path class="st12" d="M1206,283.4h-14.5c-3.3,0-6-2.7-6-6V263c0-3.3,2.7-6,6-6h14.5c3.3,0,6,2.7,6,6v14.5
		C1212,280.7,1209.3,283.4,1206,283.4z"/>
	<circle class="st31" cx="1219.7" cy="249.4" r="37.1"/>
	<circle class="st32" cx="1219.7" cy="249.4" r="43.1"/>
	<circle class="st33" cx="1241.2" cy="261.1" r="9.3"/>
	<path class="st34" d="M1251.8,216.9L1251.8,216.9c-2.9-2.9-2.9-7.6,0-10.5l39.1-39.1c2.9-2.9,7.6-2.9,10.5,0l0,0
		c2.9,2.9,2.9,7.6,0,10.5l-39.1,39.1C1259.4,219.8,1254.7,219.8,1251.8,216.9z"/>
</g>
<g id="tazza">
	<path class="st35" d="M237.2,366h7.7c3.6,0,6.5,2.9,6.5,6.5v18.6c0,3.6-2.9,6.5-6.5,6.5h-7.7c-3.6,0-6.5-2.9-6.5-6.5v-18.6
		C230.7,368.9,233.6,366,237.2,366z"/>
	<path class="st36" d="M253.8,350.9h46.1c4.5,0,8.2,3.7,8.2,8.2V413c0,4.5-3.7,8.2-8.2,8.2h-46.1c-4.5,0-8.2-3.7-8.2-8.2v-53.8
		C245.5,354.6,249.2,350.9,253.8,350.9z"/>
	<path class="st37" d="M253.8,344.7h46.1c4.5,0,8.2,3.7,8.2,8.2v53.8c0,4.5-3.7,8.2-8.2,8.2h-46.1c-4.5,0-8.2-3.7-8.2-8.2v-53.8
		C245.5,348.3,249.2,344.7,253.8,344.7z"/>
</g>
<g id="Livello_2_00000002363180821923280670000007052782680896343424_">
	<path class="st38" d="M709.6,274.1l-14-17.9l12.4-9.7c3.9-3.1,3-9.6-1.7-12.6l-56.1-35.3c-5.9-3.7-12.4,1.3-10.2,8l20.9,62.9
		c1.8,5.3,7.9,7.7,11.8,4.6l9.9-7.8l14,17.9c2.3,2.9,6.5,3.4,9.4,1.1l2.3-1.8C711.4,281.2,711.9,277,709.6,274.1L709.6,274.1z"/>
	<path class="st29" d="M709.4,270.9l-15.9-20.3l13-10.2c4-3.1,3.1-9.7-1.6-12.7l-56.2-35.2c-6-3.7-12.5,1.4-10.3,8.1l20.7,63
		c1.7,5.3,8,7.7,11.9,4.6l11.2-8.8l15.9,20.3c2,2.6,5.8,3,8.3,1l2-1.6C710.9,277.2,711.4,273.4,709.4,270.9L709.4,270.9z"/>
	<path class="st38" d="M749.1,232.2l19.8-15.5c2.2-1.7,1.7-5.4-0.9-7.1l-31.6-19.9c-3.3-2.1-7,0.8-5.7,4.5l11.8,35.4
		C743.4,232.6,746.9,233.9,749.1,232.2L749.1,232.2z"/>
	<path class="st38" d="M750.9,215.5L750.9,215.5c2-1.6,4.9-1.2,6.4,0.8l12,15.3c1.6,2,1.2,4.9-0.8,6.4v0c-2,1.6-4.9,1.2-6.4-0.8
		l-12-15.3C748.5,220,748.9,217.1,750.9,215.5z"/>
	<path class="st39" d="M748,229l20-15.7c2.2-1.7,1.8-5.5-0.9-7.1l-31.7-19.8c-3.3-2.1-7,0.8-5.8,4.5l11.7,35.5
		C742.3,229.4,745.8,230.7,748,229L748,229z"/>
	<path class="st39" d="M750.9,213.1L750.9,213.1c1.8-1.4,4.3-1.1,5.7,0.7l12.6,16.1c1.4,1.8,1.1,4.3-0.7,5.7l0,0
		c-1.8,1.4-4.3,1.1-5.7-0.7l-12.6-16.1C748.8,217,749.1,214.5,750.9,213.1z"/>
	<path class="st40" d="M826.2,227.8l-6-7.6l5.2-4c1.6-1.2,1.2-3.9-0.6-5l-22.3-14c-2.4-1.5-5,0.6-4.1,3.2l8.2,25
		c0.7,2.1,3.2,3.1,4.7,1.8l4.5-3.5l6,7.6c1,1.2,2.8,1.5,4,0.5S827.1,229.1,826.2,227.8L826.2,227.8z"/>
</g>
<g id="terminale">
	<path class="st41" d="M1247.1,307.4h152.7c3.9,0,7,3.1,7,7v107.7c0,3.9-3.1,7-7,7h-152.7c-3.9,0-7-3.1-7-7V314.4
		C1240.1,310.5,1243.3,307.4,1247.1,307.4z"/>
	<path class="st23" d="M1247.1,299.5h152.7c3.9,0,7,3.1,7,7v107.7c0,3.9-3.1,7-7,7h-152.7c-3.9,0-7-3.1-7-7V306.5
		C1240.1,302.6,1243.3,299.5,1247.1,299.5z"/>
	<text transform="matrix(1 0 0 1 1254.1021 337.7698)" class="st24 st42 st43">~ Echo  </text>
	<text transform="matrix(1 0 0 1 1254.1021 369.6819)" class="st24 st42 st43">$Ciao</text>
</g>
</svg>
